<svg aria-hidden="true" style="position: absolute; width: 0; height: 0; overflow: hidden;" version="1.1" xmlns="http://www.w3.org/2000/svg" xmlns:xlink="http://www.w3.org/1999/xlink">
<defs>

<symbol id="chevron" viewBox="0 0 16 16">
<svg width="16" height="16" viewBox="0 0 16 16" fill="none">
<path d="M10.5833 14.4086L4.73333 8.55863C4.65556 8.48085 4.59722 8.39474 4.55833 8.30029C4.51944 8.20585 4.5 8.10863 4.5 8.00863C4.5 7.90863 4.51944 7.8114 4.55833 7.71696C4.59722 7.62252 4.65556 7.5364 4.73333 7.45863L10.5833 1.60863C10.7611 1.43085 10.9833 1.33918 11.25 1.33363C11.5167 1.32807 11.7389 1.41418 11.9167 1.59196C12.1056 1.78085 12.2 2.00863 12.2 2.27529C12.2 2.54196 12.1056 2.76974 11.9167 2.95863L6.86667 8.00863L11.9167 13.0586C12.1056 13.2475 12.2 13.4725 12.2 13.7336C12.2 13.9947 12.1111 14.2142 11.9333 14.392C11.7444 14.5808 11.5167 14.6753 11.25 14.6753C10.9833 14.6753 10.7611 14.5864 10.5833 14.4086Z" fill="black"/>
</svg>
</symbol>

<symbol id="edit" viewBox="0 0 24 24">
<svg width="24" height="24" viewBox="0 0 24 24" fill="none">
<path d="m14.06 9.02.92.92L5.92 19H5v-.92l9.06-9.06M17.66 3c-.25 0-.51.1-.7.29l-1.83 1.83 3.75 3.75 1.83-1.83c.39-.39.39-1.02 0-1.41l-2.34-2.34c-.2-.2-.45-.29-.71-.29zm-3.6 3.19L3 17.25V21h3.75L17.81 9.94l-3.75-3.75z" fill="black"></path>
</svg>
</symbol>

<symbol id="plus" viewBox="0 0 24 24">
<svg width="24" height="24" viewBox="0 0 24 24" fill="none">
<path d="M13 7h-2v4H7v2h4v4h2v-4h4v-2h-4V7zm-1-5C6.48 2 2 6.48 2 12s4.48 10 10 10 10-4.48 10-10S17.52 2 12 2zm0 18c-4.41 0-8-3.59-8-8s3.59-8 8-8 8 3.59 8 8-3.59 8-8 8z" fill="black"></path>
</svg>
</symbol>

<symbol id="trash" viewBox="0 0 24 24">
<svg width="24" height="24" viewBox="0 0 24 24" fill="none">
<path d="M6 19c0 1.1.9 2 2 2h8c1.1 0 2-.9 2-2V7H6v12zm2.46-7.12 1.41-1.41L12 12.59l2.12-2.12 1.41 1.41L13.41 14l2.12 2.12-1.41 1.41L12 15.41l-2.12 2.12-1.41-1.41L10.59 14l-2.13-2.12zM15.5 4l-1-1h-5l-1 1H5v2h14V4z" fill="black"></path>
</svg>
</symbol>

</defs>
</svg>